<svg xmlns="http://www.w3.org/2000/svg" width="360" height="96" viewBox="0 0 360 96" role="img" aria-labelledby="title desc">
  <title id="title">God's best tech logo</title>
  <desc id="desc">God's best tech wordmark with a GBT monogram</desc>
  <rect width="360" height="96" rx="20" fill="#ffffff"/>
  <rect x="10" y="10" width="76" height="76" rx="18" fill="#1f5fe0"/>
  <path d="M49 27c-13 0-23 9-23 21s10 21 24 21c8 0 15-3 20-8V46H49v9h10v2c-2 1-5 2-9 2-8 0-13-5-13-11s5-11 13-11c5 0 9 2 12 5l7-7c-5-5-11-8-20-8Z" fill="#ffffff"/>
  <path d="M31 27h12v42H31V27Zm32 18h12v24H63V45Z" fill="#dbeafe" opacity=".95"/>
  <text x="102" y="44" fill="#111827" font-family="Arial, Helvetica, sans-serif" font-size="27" font-weight="800">God's best tech</text>
  <text x="104" y="67" fill="#4b5563" font-family="Arial, Helvetica, sans-serif" font-size="13" font-weight="700" letter-spacing="1.8">PHONES - GADGETS - REPAIRS</text>
</svg>
